<?xml version="1.0" standalone="no"?>
<!DOCTYPE svg PUBLIC "-//W3C//DTD SVG 20010904//EN"
 "http://www.w3.org/TR/2001/REC-SVG-20010904/DTD/svg10.dtd">
<svg version="1.0" xmlns="http://www.w3.org/2000/svg"
 width="500.000000pt" height="500.000000pt" viewBox="0 0 500.000000 500.000000"
 preserveAspectRatio="xMidYMid meet">
<metadata>
Created by potrace 1.11, written by Peter Selinger 2001-2013
</metadata>
<g transform="translate(0.000000,500.000000) scale(0.100000,-0.100000)"
fill="#000000" stroke="none">
<path d="M405 3698 c-35 -19 -167 -152 -180 -181 -6 -16 -10 -40 -7 -54 3 -18
187 -208 563 -583 l558 -556 -545 -545 c-299 -299 -553 -557 -563 -572 -31
-48 -17 -79 79 -176 95 -97 128 -113 177 -87 33 17 1326 1311 1342 1343 26 52
24 56 -673 752 -591 591 -675 671 -701 671 -17 0 -39 -6 -50 -12z"/>
<path d="M2064 1070 c-88 -9 -101 -34 -99 -190 1 -117 12 -146 58 -158 15 -4
640 -7 1388 -7 l1361 0 24 28 c23 26 24 36 24 151 0 120 -1 124 -26 150 -15
14 -38 26 -53 26 -203 4 -2640 4 -2677 0z"/>
</g>
</svg>
